:SAMPLES-PER-SECOND 30
:FULLY-SPECIFIED
:DEGREES
551
root  1.92095 30.5121 -8.20417 -96.9272 -6.98276 92.3635
Spine  -7.73138 -4.97474 -0.292854
Spine1  -3.73771 29.9065 9.29552
Neck  3.97569e-016 0 -2.38542e-015
Head  38.265 -7.75639 5.57777
R_Clavicle  0.281671 -17.3258 -0.954169
R_UpperArm  13.6064 3.83797 21.5304
R_Forearm  35.0685 7.37616 -6.19486
R_Hand  -0.864362 4.75905 -16.9662
L_Clavicle  -0.119854 10.1433 -3.09746
L_UpperArm  -3.15856 -5.93375 5.79531
L_Forearm  -4.29959 19.4135 24.0093
L_Hand  -0.149923 2.6731 -1.93106
L_Thigh  8.43705 -0.537796 -13.3046
L_Calf  -9.44743 1.93108 -14.6348
L_Foot  0.933582 8.06724 -3.93009
L_Toe0  -10.2482 2.74238 9.87387
R_Thigh  -3.12017 4.2219 4.46001
R_Calf  -7.73179 5.17203 16.6904
R_Foot  0.541468 0.667949 -3.25107
R_Toe0  -1.78902 -0.27447 -17.3284
552
root  2.39088 30.039 -9.22433 -97.6329 -8.52296 93.8093
Spine  -6.1845 -1.68426 -0.236541
Spine1  -2.18507 26.1627 11.6912
Neck  3.97569e-016 0 -2.38542e-015
Head  33.8975 -6.98815 5.27215
R_Clavicle  0.238557 -14.9437 -0.592123
R_UpperArm  10.0092 3.93622 13.147
R_Forearm  25.5886 15.2694 -13.133
R_Hand  -0.384018 6.43586 -13.3053
L_Clavicle  -0.130881 10.1771 -2.95563
L_UpperArm  -3.86852 -3.43793 6.91773
L_Forearm  -0.742493 12.7287 15.1114
L_Hand  -0.0766892 3.12388 -0.889635
L_Thigh  5.71469 0.462931 -8.49604
L_Calf  -11.1426 3.43364 -26.3545
L_Foot  0.89114 11.2929 -6.33792
L_Toe0  -8.28796 0.908514 -1.90991
R_Thigh  -0.421367 5.43538 3.13283
R_Calf  -9.01079 3.57592 11.6433
R_Foot  -0.230313 -0.0976094 1.73163
R_Toe0  -1.78908 -0.274429 -17.329
553
root  2.91677 29.9585 -10.3899 -98.4725 -10.7063 94.7253
Spine  -4.64752 -0.0781127 -0.183409
Spine1  -0.780244 22.4876 13.458
Neck  3.97569e-016 0 -2.38542e-015
Head  30.9272 -6.67076 5.97756
R_Clavicle  0.233046 -12.0139 0.111598
R_UpperArm  4.44932 5.21221 3.15988
R_Forearm  16.2153 19.8401 -17.469
R_Hand  0.413037 8.85258 -8.70741
L_Clavicle  -0.191732 11.0884 -2.69393
L_UpperArm  -3.15163 -1.31314 7.94878
L_Forearm  2.81277 5.45087 6.31157
L_Hand  -0.0163844 2.9028 -0.0932984
L_Thigh  2.03519 2.37594 -6.0865
L_Calf  -10.5979 4.21125 -32.8682
L_Foot  1.91842 11.0897 -2.64327
L_Toe0  1.27319 -0.0524569 -6.58408
R_Thigh  0.230842 6.52452 -0.731365
R_Calf  -9.43066 2.93665 9.60726
R_Foot  -0.872356 -0.691427 5.47967
R_Toe0  -1.78907 -0.274317 -17.3289
554
root  3.37769 30.2649 -11.6094 -97.3287 -11.7949 95.1792
Spine  -3.6874 1.66256 -1.68712
Spine1  -0.399271 18.689 13.6741
Neck  3.97569e-016 0 -2.38542e-015
Head  26.8993 -6.16656 8.84686
R_Clavicle  0.214137 -8.89153 0.417949
R_UpperArm  0.722826 5.68196 -5.31376
R_Forearm  9.12652 19.67 -17.3033
R_Hand  1.36018 10.6568 -3.87631
L_Clavicle  -0.194041 11.2098 -2.79425
L_UpperArm  -1.04815 1.33457 7.68791
L_Forearm  3.39757 1.05441 1.20103
L_Hand  -0.0105186 3.78129 0.0156912
L_Thigh  -0.169596 4.0226 -3.39676
L_Calf  -7.92396 4.35766 -34.1703
L_Foot  2.53392 10.0891 0.219853
L_Toe0  0.505156 0.034446 -6.1361
R_Thigh  0.734118 7.10441 -5.14285
R_Calf  -8.4474 3.3298 10.8283
R_Foot  -1.10761 -0.646405 7.46743
R_Toe0  -1.78897 -0.274142 -17.3279
555
root  3.75412 30.8466 -12.7972 -94.0986 -10.9737 95.0205
Spine  -2.96194 3.65521 -4.57554
Spine1  -0.736476 14.7192 11.1358
Neck  3.97569e-016 0 -2.38542e-015
Head  19.993 -4.73413 14.6124
R_Clavicle  0.173322 -6.72523 0.362636
R_UpperArm  -0.267592 5.22955 -9.64813
R_Forearm  5.69308 15.5148 -13.3624
R_Hand  2.02608 11.4043 -0.472352
L_Clavicle  -0.171354 11.0889 -3.16023
L_UpperArm  3.42449 3.75399 5.68884
L_Forearm  3.29694 0.678331 0.767693
L_Hand  0.0224623 5.00689 0.418685
L_Thigh  -1.1848 4.60939 1.00497
L_Calf  -5.65085 3.99297 -31.0506
L_Foot  2.48531 10.3622 -0.162425
L_Toe0  0.505156 0.034446 -6.1361
R_Thigh  1.96893 7.15444 -8.76697
R_Calf  -6.61787 4.56832 14.78
R_Foot  -1.06175 -0.374797 7.87829
R_Toe0  -1.78877 -0.273906 -17.3259
556
root  4.08105 31.5902 -13.9346 -90.758 -9.46357 94.5716
Spine  -1.72179 5.41913 -6.80163
Spine1  -0.688547 10.1889 6.65676
Neck  3.97569e-016 0 -2.38542e-015
Head  11.6931 -2.43896 21.3477
R_Clavicle  0.151529 -5.34231 0.358215
R_UpperArm  -0.0995246 4.58846 -11.2277
R_Forearm  5.54486 8.76289 -7.3858
R_Hand  2.19606 11.9257 -0.0164752
L_Clavicle  -0.159652 11.242 -3.63815
L_UpperArm  9.34961 5.7787 2.60454
L_Forearm  4.6714 2.47746 2.8504
L_Hand  0.156626 5.37646 1.8103
L_Thigh  -2.68099 4.78579 4.8799
L_Calf  -3.85276 3.13484 -24.0184
L_Foot  2.6033 11.1763 -0.425273
L_Toe0  0.505156 0.034446 -6.1361
R_Thigh  3.22459 7.09218 -12.5157
R_Calf  -4.64734 6.48645 21.0507
R_Foot  -1.01544 -0.596186 6.8754
R_Toe0  -1.79323 -0.275157 -17.3718
